<svg xmlns="http://www.w3.org/2000/svg" width="66.177" height="54.6" viewBox="0 0 66.177 54.6">
  <g id="academia" transform="translate(0)">
    <path id="Trazado_6528" data-name="Trazado 6528" d="M88.015,247.248l-8,.078v6.862c0,2.771,1.742,5.326,4.674,7.368Z" transform="translate(-69.671 -217.009)" fill="#6bbef6"/>
    <path id="Trazado_6529" data-name="Trazado 6529" d="M126.427,247.853l2,16.1a33.491,33.491,0,0,0,9.984,2.628,2.356,2.356,0,0,1,1.4.675l3.195,3.2a.234.234,0,0,0,.331,0l3.2-3.2a2.356,2.356,0,0,1,1.4-.675c10.277-1.167,17.987-6.037,17.987-11.867v-6.862Z" transform="translate(-110.086 -217.535)" fill="#6bbef6"/>
    <path id="Trazado_6531" data-name="Trazado 6531" d="M16.341,177.006c1.665,1.695-1.255-3.77-1.125-4.009L.078,164.116A.157.157,0,0,1,0,163.98v4.683a.156.156,0,0,0,.078.136l14.937,8.763Z" transform="translate(0 -144.503)" fill="#75cef9"/>
    <path id="Trazado_6532" data-name="Trazado 6532" d="M177.326,164.116l-33.011,13.446c-.049.029-14.744-2.731-14.744-2.731l-1.834,1.892,1.834,2.791,14.664,8.6a.158.158,0,0,0,.16,0L177.326,168.8a.156.156,0,0,0,.078-.136V163.98A.156.156,0,0,1,177.326,164.116Z" transform="translate(-111.226 -144.503)" fill="#75cef9"/>
    <path id="Trazado_6533" data-name="Trazado 6533" d="M66.1,32.634,33.168,13.315a.158.158,0,0,0-.16,0L.077,32.634a.158.158,0,0,0,0,.272L33.008,52.225a.158.158,0,0,0,.16,0L66.1,32.906a.158.158,0,0,0,0-.272Z" transform="translate(0.001 -13.293)" fill="#90d8f9"/>
    <path id="Trazado_6534" data-name="Trazado 6534" d="M135.76,152.976a1.664,1.664,0,0,0-2.278-.593l-16.489,9.673a1.664,1.664,0,0,0-.822,1.436v20.491c.459-.36,1.037,2.465,1.665,2.465s1.205-2.825,1.664-2.466V164.445l15.666-9.191A1.664,1.664,0,0,0,135.76,152.976Z" transform="translate(-101.155 -134.206)" fill="#f6e266"/>
    <path id="Trazado_6535" data-name="Trazado 6535" d="M113.437,399.356h-5.132a.133.133,0,0,1-.133-.133v-2.566a2.7,2.7,0,0,1,5.4,0v2.566A.133.133,0,0,1,113.437,399.356Z" transform="translate(-94.19 -344.756)" fill="#f1f1f4"/>
  </g>
</svg>
