<svg xmlns="http://www.w3.org/2000/svg" xmlns:xlink="http://www.w3.org/1999/xlink" width="222.418" height="251.981" viewBox="0 0 222.418 251.981">
  <defs>
    <linearGradient id="linear-gradient" x1="0.5" x2="0.5" y2="1" gradientUnits="objectBoundingBox">
      <stop offset="0" stop-color="#5ed9ff"/>
      <stop offset="1" stop-color="#0f83cc"/>
    </linearGradient>
    <linearGradient id="linear-gradient-2" x1="0.5" x2="0.5" y2="1" gradientUnits="objectBoundingBox">
      <stop offset="0" stop-color="#ffb72b"/>
      <stop offset="1" stop-color="#fff2d8"/>
    </linearGradient>
    <linearGradient id="linear-gradient-3" x1="0.5" x2="0.5" y2="1" gradientUnits="objectBoundingBox">
      <stop offset="0" stop-color="#26a6fe"/>
      <stop offset="1" stop-color="#d9f0ff"/>
    </linearGradient>
    <linearGradient id="linear-gradient-4" x1="0.5" x2="0.5" y2="1" gradientUnits="objectBoundingBox">
      <stop offset="0" stop-color="#b3d2f5"/>
      <stop offset="1" stop-color="#fff"/>
    </linearGradient>
    <linearGradient id="linear-gradient-5" x1="0.5" x2="0.5" y2="1" gradientUnits="objectBoundingBox">
      <stop offset="0" stop-color="#f8ea69"/>
      <stop offset="1" stop-color="#fff"/>
    </linearGradient>
  </defs>
  <g id="Grupo_946" data-name="Grupo 946" transform="translate(0)">
    <g id="Grupo_689" data-name="Grupo 689" transform="translate(0 0)">
      <g id="Grupo_677" data-name="Grupo 677" transform="translate(89.005 14.798)">
        <path id="Trazado_4876" data-name="Trazado 4876" d="M297.59,398.354l-19.434-9.977v39.906h9.976a9.976,9.976,0,0,0,9.977-9.977v-19.94c-.173,0-.346,0-.519-.013" transform="translate(-208.318 -263.006)" fill="#433434"/>
        <path id="Trazado_4877" data-name="Trazado 4877" d="M141.629,376.448a9.976,9.976,0,0,1-9.977,9.977H71.793a9.976,9.976,0,0,1-9.977-9.977V356.5l79.813-29.93Z" transform="translate(-61.814 -221.148)" fill="#575757"/>
        <path id="Trazado_4878" data-name="Trazado 4878" d="M190.426,450.194a4.988,4.988,0,1,1-4.988,4.988,4.988,4.988,0,0,1,4.988-4.988" transform="translate(-145.53 -304.868)"/>
        <path id="Trazado_4879" data-name="Trazado 4879" d="M288.128,0h-9.977V29.93L298.1,9.977A9.976,9.976,0,0,0,288.128,0" transform="translate(-208.315)" fill="#433434"/>
        <path id="Trazado_4880" data-name="Trazado 4880" d="M131.648,0H71.789a9.976,9.976,0,0,0-9.977,9.977L101.718,29.93,141.625,9.977A9.976,9.976,0,0,0,131.648,0" transform="translate(-61.812)" fill="#575757"/>
        <path id="Trazado_4881" data-name="Trazado 4881" d="M235.805,30.906,200.887,93.592l34.918,62.686h9.912l.065-125.372Z" transform="translate(-155.992 -20.929)" fill="#d2d2d2"/>
        <path id="Trazado_4882" data-name="Trazado 4882" d="M61.811,30.906V156.278h79.294l.519-125.372Z" transform="translate(-61.811 -20.929)" fill="#fff"/>
      </g>
      <path id="Trazado_4892" data-name="Trazado 4892" d="M312.6,62.934a3.7,3.7,0,0,0-5.222,0L288.913,81.4l5.222,5.222L309.99,70.768l12.161,12.162a3.7,3.7,0,0,0,5.222,0L354.307,56V72.932h7.386V47.08h-.033a3.593,3.593,0,0,0-3.49-3.693H332.149v7.386h16.936L324.762,75.1Z" transform="translate(-139.276 -27.432)" fill="#0eb286"/>
      <path id="Trazado_4894" data-name="Trazado 4894" d="M332.6,164.914c-.469-.028-.951-.043-1.419-.043s-.951.014-1.419.043V193.26a1.42,1.42,0,0,0,1.419,1.419h28.347c.029-.469.043-.951.043-1.419s-.014-.951-.043-1.419A28.39,28.39,0,0,0,332.6,164.914Z" transform="translate(-200.721 -134.094)" fill="url(#linear-gradient)"/>
      <path id="Trazado_4895" data-name="Trazado 4895" d="M218.872,194.9H193.364a1.42,1.42,0,0,1-1.419-1.419V165.131A28.388,28.388,0,1,0,221.711,194.9Z" transform="translate(-62.906 -134.311)" fill="url(#linear-gradient-2)"/>
      <rect id="Rectángulo_1617" data-name="Rectángulo 1617" width="46.781" height="3.333" rx="1.667" transform="translate(107.231 115.58)" fill="#959595"/>
      <rect id="Rectángulo_1618" data-name="Rectángulo 1618" width="46.781" height="3.333" rx="1.667" transform="translate(107.231 122.247)" fill="#959595"/>
      <rect id="Rectángulo_1619" data-name="Rectángulo 1619" width="46.781" height="3.333" rx="1.667" transform="translate(107.231 128.079)" fill="#959595"/>
      <rect id="Rectángulo_1620" data-name="Rectángulo 1620" width="23.849" height="3.333" rx="1.667" transform="translate(107.231 134.746)" fill="#959595"/>
      <g id="Grupo_688" data-name="Grupo 688" transform="translate(0)">
        <path id="Trazado_4924" data-name="Trazado 4924" d="M49.9,135.9H6a6,6,0,0,1-6-6V86a6,6,0,0,1,6-6H49.9a6,6,0,0,1,6,6V129.9A6,6,0,0,1,49.9,135.9Z" transform="translate(14.938 -65.222)" fill="url(#linear-gradient-3)"/>
        <path id="Trazado_4925" data-name="Trazado 4925" d="M56.892,84.93a5.974,5.974,0,0,1,.638,2.695V130.9a6.628,6.628,0,0,1-6.628,6.628H7.626a5.975,5.975,0,0,1-2.695-.638,6,6,0,0,0,5.361,3.3H54.2a6,6,0,0,0,6-6V90.291A6,6,0,0,0,56.892,84.93Z" transform="translate(10.645 -69.514)" fill="#0593fc"/>
        <path id="Trazado_4926" data-name="Trazado 4926" d="M372.149,9.572a14.533,14.533,0,0,1-9.01-9.016A.82.82,0,0,0,362.364,0h-.006a.82.82,0,0,0-.775.557,14.532,14.532,0,0,1-9.025,9.021.818.818,0,0,0,0,1.551,14.529,14.529,0,0,1,9.025,9.02.82.82,0,0,0,.775.557h.006a.82.82,0,0,0,.775-.557,14.53,14.53,0,0,1,9.01-9.015.82.82,0,0,0,.556-.775v-.012A.82.82,0,0,0,372.149,9.572Z" transform="translate(-277.25 0)" fill="#ffd154"/>
        <path id="Trazado_4931" data-name="Trazado 4931" d="M382.316,14.4A21.867,21.867,0,0,1,368.759.837,1.234,1.234,0,0,0,367.593,0h-.009a1.234,1.234,0,0,0-1.166.837,21.864,21.864,0,0,1-13.579,13.573,1.231,1.231,0,0,0,0,2.333,21.86,21.86,0,0,1,13.579,13.571,1.234,1.234,0,0,0,1.166.837h.009a1.234,1.234,0,0,0,1.166-.837,21.862,21.862,0,0,1,13.556-13.563,1.234,1.234,0,0,0,.837-1.166v-.017A1.234,1.234,0,0,0,382.316,14.4Z" transform="translate(-352 87.273)" fill="#ffd154"/>
        <path id="Trazado_4927" data-name="Trazado 4927" d="M432.04,69.4a14.4,14.4,0,0,1-1.642-.68.825.825,0,0,1-.357.241,14.53,14.53,0,0,0-9.01,9.015.825.825,0,0,1-.237.354,14.409,14.409,0,0,1,.68,1.646.82.82,0,0,0,.775.557h.006a.82.82,0,0,0,.775-.557,14.53,14.53,0,0,1,9.01-9.015.82.82,0,0,0,.556-.775v-.012A.82.82,0,0,0,432.04,69.4Z" transform="translate(-337.142 -59.826)" fill="#f3b125"/>
        <path id="Trazado_4930" data-name="Trazado 4930" d="M437.715,69.741a21.674,21.674,0,0,1-2.471-1.022,1.241,1.241,0,0,1-.538.363A21.862,21.862,0,0,0,421.15,82.645a1.241,1.241,0,0,1-.356.532,21.67,21.67,0,0,1,1.023,2.477,1.234,1.234,0,0,0,1.166.837h.009a1.234,1.234,0,0,0,1.166-.837,21.862,21.862,0,0,1,13.556-13.563,1.234,1.234,0,0,0,.837-1.166v-.017A1.234,1.234,0,0,0,437.715,69.741Z" transform="translate(-407.399 31.934)" fill="#f3b125"/>
        <g id="Grupo_687" data-name="Grupo 687" transform="translate(20.483 24.168)">
          <path id="Trazado_4928" data-name="Trazado 4928" d="M61.765,155.006a3.8,3.8,0,0,0-3.554-2.443h0A3.794,3.794,0,0,0,54.66,155L43.053,185.475a3.106,3.106,0,1,0,5.8,2.211l1.966-5.161a.667.667,0,0,1,.623-.429H64.888a.667.667,0,0,1,.624.431l1.944,5.15a3.105,3.105,0,0,0,4.034,1.8,3.15,3.15,0,0,0,1.753-4.054ZM53.7,174.98,57.575,164.8a.667.667,0,0,1,1.247,0l3.843,10.183a.667.667,0,0,1-.624.9H54.32A.667.667,0,0,1,53.7,174.98Z" transform="translate(-42.849 -152.563)" fill="#fff"/>
          <path id="Trazado_4929" data-name="Trazado 4929" d="M317.955,157.65a3.106,3.106,0,0,0-3.106,3.106v30.253a3.106,3.106,0,0,0,6.211,0V160.756A3.106,3.106,0,0,0,317.955,157.65Z" transform="translate(-279.651 -156.992)" fill="#fff"/>
        </g>
      </g>
    </g>
    <g id="_x33_3_Robot_Hand_x2C__Robot_x2C__Arm_x2C__Robotics_x2C__Robotic_Hand" transform="translate(83.965 90.038)">
      <g id="Grupo_896" data-name="Grupo 896" transform="translate(0)">
        <g id="Grupo_895" data-name="Grupo 895">
          <path id="Trazado_6558" data-name="Trazado 6558" d="M351.474,229.1a9.907,9.907,0,0,1,14.019,0l14.825,14.822L365.759,257.4l-14.285-14.285A9.907,9.907,0,0,1,351.474,229.1Z" transform="translate(-348.568 -154.684)" fill="#528fd8"/>
          <path id="Trazado_6559" data-name="Trazado 6559" d="M302.875,291.932a9.918,9.918,0,0,0,9.914,9.917h19.818V282.018H312.789A9.916,9.916,0,0,0,302.875,291.932Z" transform="translate(-286.349 -192.785)" fill="#82aee3"/>
          <path id="Trazado_6560" data-name="Trazado 6560" d="M154.165,386.143v29.732a9.914,9.914,0,0,1-9.914,9.914H131.033l-6.61-3.511-6.612,3.511H104.592a9.914,9.914,0,0,1-9.914-9.914V386.143Z" transform="translate(-41.797 -263.846)" fill="#82aee3"/>
          <path id="Trazado_6561" data-name="Trazado 6561" d="M142.764,208.354v46.308a9.876,9.876,0,0,1-9.875,9.875H116.31l-3.159-1.8-3.424,1.8H96.479l-3.393-2.211L89.9,264.537H73.32a9.874,9.874,0,0,1-9.875-9.875V208.354A153.262,153.262,0,0,1,142.764,208.354Z" transform="translate(-20.478 -138.949)" fill="url(#linear-gradient-4)"/>
          <path id="Trazado_6562" data-name="Trazado 6562" d="M66,104.59l-2.554,5.352L66,114.5l10.283,3.255,9.549-3.255V104.59a9.916,9.916,0,0,0-19.831,0Z" transform="translate(36.455 -64.931)" fill="#528fd8"/>
          <g id="Grupo_894" data-name="Grupo 894" transform="translate(42.967 9.914)">
            <path id="Trazado_6563" data-name="Trazado 6563" d="M65.506,157.12c-2.685,6.862-2.809,13.484,0,19.831H85.337V157.12Z" transform="translate(-6.018 -117.46)" fill="#528fd8"/>
            <path id="Trazado_6564" data-name="Trazado 6564" d="M125.9,53.138l4.7,8.829c6.865,4.016,13.439,3.454,19.828,0V42.136a9.914,9.914,0,1,0-19.828,0Z" transform="translate(-90.936 -32.222)" fill="#82aee3"/>
            <path id="Trazado_6565" data-name="Trazado 6565" d="M238.9,42.136V61.967a18.945,18.945,0,0,0,19.828,0l3.779-9.3-3.779-10.536a9.914,9.914,0,1,0-19.828,0Z" transform="translate(-238.898 -32.222)" fill="#82aee3"/>
          </g>
          <path id="Trazado_6566" data-name="Trazado 6566" d="M128.513,125.9c-3.312,10.376-3.654,20.339,0,29.745h19.828V125.9Z" transform="translate(-45.886 -86.238)" fill="#82aee3"/>
          <path id="Trazado_6567" data-name="Trazado 6567" d="M243.3,125.9v29.745h19.828c3.352-9.326,2.994-19.3,0-29.745Z" transform="translate(-200.331 -86.238)" fill="#82aee3"/>
          <path id="Trazado_6568" data-name="Trazado 6568" d="M188.344,40.66a18.951,18.951,0,0,0,19.831,0V10.914a9.916,9.916,0,0,0-19.831,0Z" transform="translate(-125.549 -1)" fill="#528fd8"/>
          <path id="Trazado_6569" data-name="Trazado 6569" d="M188.343,130.147v25.5h19.832V125.9H188.343Z" transform="translate(-125.548 -86.238)" fill="#528fd8"/>
          <path id="Trazado_6570" data-name="Trazado 6570" d="M115.533,308.981V325.5h6.583V312.272h6.623a3.293,3.293,0,0,0,3.292-3.292V295.759a3.292,3.292,0,0,0-6.583,0v9.931h-6.623A3.291,3.291,0,0,0,115.533,308.981Z" transform="translate(-26.284 -199.916)" fill="#516980"/>
          <path id="Trazado_6571" data-name="Trazado 6571" d="M209.21,295.759v13.222a3.293,3.293,0,0,0,3.292,3.292h6.622V325.5h6.583V308.981a3.289,3.289,0,0,0-3.292-3.292h-6.623v-9.931a3.292,3.292,0,1,0-6.583,0Z" transform="translate(-149.707 -199.916)" fill="#516980"/>
          <path id="Trazado_6572" data-name="Trazado 6572" d="M167.528,444.751v16.524H180.75V444.751a6.611,6.611,0,1,0-13.222,0Z" transform="translate(-91.514 -299.331)" fill="#528fd8"/>
          <ellipse id="Elipse_63" data-name="Elipse 63" cx="6.61" cy="6.61" rx="6.61" ry="6.61" transform="translate(56.185 82.624)" fill="url(#linear-gradient-5)"/>
          <ellipse id="Elipse_64" data-name="Elipse 64" cx="6.61" cy="6.61" rx="6.61" ry="6.61" transform="translate(95.845 82.624)" fill="url(#linear-gradient-5)"/>
        </g>
      </g>
    </g>
  </g>
</svg>
