<svg xmlns="http://www.w3.org/2000/svg" width="131.632" height="122.229" viewBox="0 0 131.632 122.229">
  <g id="_60_blog" transform="translate(0)">
    <path id="Trazado_4954" data-name="Trazado 4954" d="M367.011,180.7v56.413a23.506,23.506,0,0,1-47.011,0V180.7a4.7,4.7,0,0,1,4.7-4.7H362.31A4.7,4.7,0,0,1,367.011,180.7Z" transform="translate(-235.38 -138.391)" fill="#ffe07d"/>
    <path id="Trazado_4955" data-name="Trazado 4955" d="M343.506,249.4H324.7a4.7,4.7,0,1,1,0-9.4h18.8a4.7,4.7,0,0,1,0,9.4Zm4.7,14.1a4.7,4.7,0,0,0-4.7-4.7H324.7a4.7,4.7,0,1,0,0,9.4h18.8A4.7,4.7,0,0,0,348.207,263.505Zm0,18.8a4.7,4.7,0,0,0-4.7-4.7H324.7a4.7,4.7,0,1,0,0,9.4h18.8A4.7,4.7,0,0,0,348.207,282.31Z" transform="translate(-235.38 -183.587)" fill="#fff"/>
    <path id="Trazado_4956" data-name="Trazado 4956" d="M362.31,176H324.7a4.7,4.7,0,0,0-4.7,4.7v56.413a23.506,23.506,0,0,0,47.011,0V180.7A4.7,4.7,0,0,0,362.31,176Zm-4.7,61.114a14.1,14.1,0,0,1-28.207,0V185.4h28.207Z" transform="translate(-235.38 -138.391)" fill="#ffc269"/>
    <path id="Trazado_4957" data-name="Trazado 4957" d="M362.31,176H324.7a4.7,4.7,0,0,0-4.7,4.7v56.413a23.506,23.506,0,0,0,47.011,0V180.7A4.7,4.7,0,0,0,362.31,176Zm-4.7,61.114a14.1,14.1,0,0,1-28.207,0V185.4h28.207Z" transform="translate(-235.38 -138.391)" fill="none"/>
    <path id="Trazado_4958" data-name="Trazado 4958" d="M158.93,85.609H126.023V52.7a4.7,4.7,0,0,0-4.7-4.7H36.7A4.7,4.7,0,0,0,32,52.7V150.86a19.416,19.416,0,0,0,19.369,19.369h88.757a23.506,23.506,0,0,0,23.506-23.506V90.31A4.7,4.7,0,0,0,158.93,85.609Zm-4.7,61.114a14.1,14.1,0,0,1-28.207,0V95.011h28.207Z" transform="translate(-32 -48)" fill="#f1c40f"/>
    <path id="Trazado_4959" data-name="Trazado 4959" d="M144.827,165.528a4.7,4.7,0,0,1-4.7,4.7H51.369A19.416,19.416,0,0,1,32,150.86V52.7A4.7,4.7,0,0,1,36.7,48h4.7v88.052a24.822,24.822,0,0,0,24.775,24.775h73.949a4.7,4.7,0,0,1,4.7,4.7Z" transform="translate(-32 -48)" fill="#f39c13" opacity="0.4"/>
    <path id="Trazado_4960" data-name="Trazado 4960" d="M220.207,116.7v18.8a4.7,4.7,0,0,1-4.7,4.7H196.7a4.7,4.7,0,0,1-4.7-4.7V116.7a4.7,4.7,0,0,1,4.7-4.7h18.8A4.7,4.7,0,0,1,220.207,116.7Z" transform="translate(-144.989 -93.196)" fill="#2c3e50"/>
    <path id="Trazado_4962" data-name="Trazado 4962" d="M114.8,121.4H100.7a4.7,4.7,0,1,1,0-9.4h14.1a4.7,4.7,0,1,1,0,9.4Zm4.7,14.1a4.7,4.7,0,0,0-4.7-4.7H100.7a4.7,4.7,0,0,0,0,9.4h14.1A4.7,4.7,0,0,0,119.506,135.506Zm32.908,18.8a4.7,4.7,0,0,0-4.7-4.7H100.7a4.7,4.7,0,1,0,0,9.4h47.011A4.7,4.7,0,0,0,152.414,154.31Zm0,18.8a4.7,4.7,0,0,0-4.7-4.7H100.7a4.7,4.7,0,1,0,0,9.4h47.011A4.7,4.7,0,0,0,152.414,173.114Zm-28.207,18.8a4.7,4.7,0,0,0-4.7-4.7H100.7a4.7,4.7,0,1,0,0,9.4h18.8A4.7,4.7,0,0,0,124.207,191.919Zm23.506-4.7a4.7,4.7,0,1,0,4.7,4.7A4.7,4.7,0,0,0,147.712,187.218Zm-14.1,0a4.7,4.7,0,1,0,4.7,4.7A4.7,4.7,0,0,0,133.609,187.218Z" transform="translate(-77.196 -93.196)" fill="#fff"/>
  </g>
</svg>
