<svg xmlns="http://www.w3.org/2000/svg" width="56.88" height="56.88" viewBox="0 0 56.88 56.88">
  <g id="carpeta" transform="translate(0.001)">
    <path id="Trazado_6542" data-name="Trazado 6542" d="M50.214,6.666V53.547L33.439,52.78l-20.108-.9c0,2.766-5.566,5-8.332,5a5.036,5.036,0,0,1-5-5V0H19.475l3.333,6.666Zm0,0" transform="translate(-0.001)" fill="#ffb64c"/>
    <path id="Trazado_6543" data-name="Trazado 6543" d="M317.775,60v46.881L301,106.114V60Zm0,0" transform="translate(-267.562 -53.334)" fill="#ff9100"/>
    <path id="Trazado_6544" data-name="Trazado 6544" d="M96.88,120v36.883a6.685,6.685,0,0,1-6.666,6.666H45a4.992,4.992,0,0,0,5-5V120Zm0,0" transform="translate(-40.001 -106.669)" fill="#ffd396"/>
    <path id="Trazado_6545" data-name="Trazado 6545" d="M324.441,120v36.883a6.685,6.685,0,0,1-6.666,6.666H301V120Zm0,0" transform="translate(-267.562 -106.669)" fill="#ffb64c"/>
    <path id="Trazado_6546" data-name="Trazado 6546" d="M256.665,232.532l-6.332,3.8L245.7,239.1l-1.7-2.833,6.332-3.8,4.632-2.766Zm0,0" transform="translate(-216.894 -204.181)" fill="#596c76"/>
    <path id="Trazado_6547" data-name="Trazado 6547" d="M256.665,326.265l-1.7,2.833-4.632-2.767-6.332-3.8,1.7-2.833,4.633,2.766Zm0,0" transform="translate(-216.894 -284.183)" fill="#596c76"/>
    <path id="Trazado_6548" data-name="Trazado 6548" d="M301,344.6l6.332,3.8-1.7,2.833L301,348.464Zm0,0" transform="translate(-267.562 -306.315)" fill="#465a61"/>
    <path id="Trazado_6549" data-name="Trazado 6549" d="M307.332,232.532l-6.332,3.8v-3.866l4.633-2.766Zm0,0" transform="translate(-267.562 -204.181)" fill="#465a61"/>
    <path id="Trazado_6550" data-name="Trazado 6550" d="M186,282a5,5,0,1,1,5-5A5,5,0,0,1,186,282Zm0,0" transform="translate(-160.893 -241.783)" fill="#596c76"/>
    <g id="Grupo_889" data-name="Grupo 889" transform="translate(36.771 20.219)">
      <path id="Trazado_6551" data-name="Trazado 6551" d="M336,192a5,5,0,1,1,5-5A5,5,0,0,1,336,192Zm0,0" transform="translate(-331 -182)" fill="#465a61"/>
      <path id="Trazado_6552" data-name="Trazado 6552" d="M336,372a5,5,0,1,1,5-5A5,5,0,0,1,336,372Zm0,0" transform="translate(-331 -342.003)" fill="#465a61"/>
    </g>
  </g>
</svg>
