<svg xmlns="http://www.w3.org/2000/svg" width="55.909" height="55.909" viewBox="0 0 55.909 55.909">
  <g id="chart" transform="translate(0)">
    <path id="Trazado_6468" data-name="Trazado 6468" d="M46.938,88.838H26.088l-.007-20.85a1.746,1.746,0,0,0-1.745-1.745,24.3,24.3,0,1,0,24.347,24.34,1.745,1.745,0,0,0-1.745-1.745Z" transform="translate(0 -59.018)" fill="#d83d3d"/>
    <path id="Trazado_6469" data-name="Trazado 6469" d="M274.8,0a1.745,1.745,0,0,0-1.738,1.748l.04,22.594a1.745,1.745,0,0,0,1.745,1.742h22.594a1.745,1.745,0,0,0,1.745-1.745A24.43,24.43,0,0,0,274.8,0Z" transform="translate(-243.282 0)" fill="#e2c63b"/>
    <path id="Trazado_6470" data-name="Trazado 6470" d="M104.414,157.8a14.754,14.754,0,1,0,12.859,12.516H104.419Z" transform="translate(-78.33 -140.493)" fill="#ed4040"/>
    <path id="Trazado_6471" data-name="Trazado 6471" d="M273.183,79.946l.027,15.371a1.745,1.745,0,0,0,1.745,1.742H290.55A14.765,14.765,0,0,0,273.183,79.946Z" transform="translate(-243.386 -70.975)" fill="#f4dc4d"/>
  </g>
</svg>
