<svg xmlns="http://www.w3.org/2000/svg" width="141.035" height="122.229" viewBox="0 0 141.035 122.229">
  <g id="Icon" transform="translate(0)">
    <path id="Trazado_4934" data-name="Trazado 4934" d="M49.311,76.079H66.982L61.571,90.691a4.7,4.7,0,0,0,6.967,5.576L99.627,76.079h7.226a12.876,12.876,0,0,0,9.219-3.907,13.324,13.324,0,0,0,3.756-9.285v-46.7a13.324,13.324,0,0,0-3.756-9.285A12.876,12.876,0,0,0,106.853,3H19.975a12.876,12.876,0,0,0-9.219,3.907A13.324,13.324,0,0,0,7,16.191v46.7c0,2.313.334,8.772.334,8.772a4.7,4.7,0,0,0,4.7,4.452Z" transform="translate(21.207 -3)" fill="#f1c40f" fill-rule="evenodd"/>
    <path id="Trazado_4935" data-name="Trazado 4935" d="M24.25,76.079,18.839,90.691a4.7,4.7,0,0,0,1.471,5.3,4.6,4.6,0,0,0,1.321.743l.141.052.155.047.113.033.118.028.122.028.122.023.165.028.1.009a4.679,4.679,0,0,0,3.136-.719L56.9,76.079h7.226a12.876,12.876,0,0,0,9.219-3.907A13.324,13.324,0,0,0,77.1,62.888v-46.7A13.324,13.324,0,0,0,73.34,6.907,12.876,12.876,0,0,0,64.121,3H20.682V76.079Z" transform="translate(63.939 -3)" fill="#f39c13" fill-rule="evenodd"/>
    <ellipse id="Elipse_26" data-name="Elipse 26" cx="9.558" cy="9.558" rx="9.558" ry="9.558" transform="translate(102.802 22.823)" fill="#2c3e50"/>
    <ellipse id="Elipse_27" data-name="Elipse 27" cx="8.602" cy="9.558" rx="8.602" ry="9.558" transform="translate(76.039 22.823)" fill="#34495e"/>
    <ellipse id="Elipse_28" data-name="Elipse 28" cx="9.558" cy="9.558" rx="9.558" ry="9.558" transform="translate(47.364 22.823)" fill="#34495e"/>
    <path id="Trazado_4936" data-name="Trazado 4936" d="M19,8V26.8A9.4,9.4,0,1,0,19,8Z" transform="translate(65.621 15.506)" fill="#2c3e50" fill-rule="evenodd"/>
    <path id="Trazado_4937" data-name="Trazado 4937" d="M49.845,66.75l16.407.1a9.76,9.76,0,0,0,7.165-3.159,10.59,10.59,0,0,0,2.8-7.2V25.361a10.581,10.581,0,0,0-2.8-7.2A9.76,9.76,0,0,0,66.252,15H10.966A9.76,9.76,0,0,0,3.8,18.159a10.581,10.581,0,0,0-2.8,7.2V56.492a10.59,10.59,0,0,0,2.8,7.2,9.76,9.76,0,0,0,7.165,3.159h7.39L45.948,80.337a4.7,4.7,0,0,0,6.525-5.707Z" transform="translate(-1 41.414)" fill="#34495e" fill-rule="evenodd"/>
    <path id="Trazado_4938" data-name="Trazado 4938" d="M9,15V76.754l7.339,3.582a4.7,4.7,0,0,0,6.525-5.707L20.236,66.75l16.407.1a9.76,9.76,0,0,0,7.165-3.159,10.59,10.59,0,0,0,2.8-7.2V25.361a10.581,10.581,0,0,0-2.8-7.2A9.76,9.76,0,0,0,36.643,15Z" transform="translate(28.609 41.414)" fill="#2c3e50" fill-rule="evenodd"/>
  </g>
</svg>
