<svg xmlns="http://www.w3.org/2000/svg" width="54.652" height="54.652" viewBox="0 0 54.652 54.652">
  <g id="configuracion" transform="translate(0)">
    <path id="Trazado_6482" data-name="Trazado 6482" d="M53.231,22.195l-4.156-.472a22.072,22.072,0,0,0-2.32-5.923l2.517-3.163a1.6,1.6,0,0,0-.121-2.129L44.144,5.5a1.6,1.6,0,0,0-2.129-.121L39,7.779a22.055,22.055,0,0,0-6.116-2.594L32.457,1.42A1.6,1.6,0,0,0,30.866,0H23.784a1.6,1.6,0,0,0-1.591,1.421l-.428,3.765a22.046,22.046,0,0,0-6.115,2.593l-3.015-2.4a1.6,1.6,0,0,0-2.129.121L5.5,10.508a1.6,1.6,0,0,0-.121,2.129L7.9,15.8a22.072,22.072,0,0,0-2.32,5.923l-4.156.472A1.6,1.6,0,0,0,0,23.785v7.082A1.6,1.6,0,0,0,1.42,32.458l4.425.5a22.114,22.114,0,0,0,2.393,5.463L5.379,42.016A1.6,1.6,0,0,0,5.5,44.145l5.007,5.008a1.6,1.6,0,0,0,2.129.12l3.743-2.979a22.119,22.119,0,0,0,5.268,2.134l.546,4.8a1.6,1.6,0,0,0,1.591,1.42h7.082a1.6,1.6,0,0,0,1.591-1.42l.546-4.8a22.105,22.105,0,0,0,5.269-2.134l3.743,2.979a1.6,1.6,0,0,0,2.129-.121l5.007-5.008a1.6,1.6,0,0,0,.12-2.129l-2.859-3.592a22.107,22.107,0,0,0,2.393-5.463l4.425-.5a1.6,1.6,0,0,0,1.421-1.591V23.785a1.6,1.6,0,0,0-1.42-1.591Zm0,0" transform="translate(0.001 0)" fill="#e0f4ff"/>
    <path id="Trazado_6483" data-name="Trazado 6483" d="M281.905,22.195l-4.156-.472a22.073,22.073,0,0,0-2.32-5.923l2.517-3.163a1.6,1.6,0,0,0-.121-2.129L272.818,5.5a1.6,1.6,0,0,0-2.129-.121l-3.015,2.4a22.056,22.056,0,0,0-6.116-2.594l-.428-3.765A1.6,1.6,0,0,0,259.54,0H256V54.652h3.541a1.6,1.6,0,0,0,1.591-1.42l.546-4.8a22.118,22.118,0,0,0,5.268-2.134l3.744,2.979a1.6,1.6,0,0,0,2.129-.121l5.007-5.007a1.6,1.6,0,0,0,.121-2.129l-2.859-3.592a22.118,22.118,0,0,0,2.393-5.463l4.425-.5a1.6,1.6,0,0,0,1.421-1.591V23.785a1.6,1.6,0,0,0-1.42-1.591Zm0,0" transform="translate(-228.674 0)" fill="#d7e9ff"/>
    <path id="Trazado_6484" data-name="Trazado 6484" d="M53.231,22.195l-4.156-.472a22.072,22.072,0,0,0-2.32-5.923l2.517-3.163a1.6,1.6,0,0,0-.121-2.129L44.144,5.5a1.6,1.6,0,0,0-2.129-.121L39,7.779a22.055,22.055,0,0,0-6.116-2.594L32.457,1.42A1.6,1.6,0,0,0,30.866,0H23.784a1.6,1.6,0,0,0-1.591,1.421l-.428,3.765a22.046,22.046,0,0,0-6.115,2.593l-3.015-2.4a1.6,1.6,0,0,0-2.129.121L5.5,10.508a1.6,1.6,0,0,0-.121,2.129L7.9,15.8a22.072,22.072,0,0,0-2.32,5.923l-4.156.472A1.6,1.6,0,0,0,0,23.785v7.082A1.6,1.6,0,0,0,1.42,32.458l4.425.5a22.114,22.114,0,0,0,2.393,5.463L5.379,42.016A1.6,1.6,0,0,0,5.5,44.145l5.007,5.008a1.6,1.6,0,0,0,2.129.12l3.743-2.979a22.119,22.119,0,0,0,5.268,2.134l.546,4.8a1.6,1.6,0,0,0,1.591,1.42h7.082a1.6,1.6,0,0,0,1.591-1.42l.546-4.8a22.105,22.105,0,0,0,5.269-2.134l3.743,2.979a1.6,1.6,0,0,0,2.129-.121l5.007-5.008a1.6,1.6,0,0,0,.12-2.129l-2.859-3.592a22.107,22.107,0,0,0,2.393-5.463l4.425-.5a1.6,1.6,0,0,0,1.421-1.591V23.785a1.6,1.6,0,0,0-1.42-1.591ZM27.325,43.606A16.784,16.784,0,1,1,44.11,26.822,16.8,16.8,0,0,1,27.325,43.606Zm0,0" transform="translate(0.001 0)" fill="#6e67d6"/>
    <path id="Trazado_6485" data-name="Trazado 6485" d="M281.905,22.195l-4.156-.472a22.073,22.073,0,0,0-2.32-5.923l2.517-3.163a1.6,1.6,0,0,0-.121-2.129L272.818,5.5a1.6,1.6,0,0,0-2.129-.121l-3.015,2.4a22.056,22.056,0,0,0-6.116-2.594l-.428-3.765A1.6,1.6,0,0,0,259.54,0H256V10.038a16.784,16.784,0,1,1,0,33.568V54.652h3.541a1.6,1.6,0,0,0,1.591-1.42l.546-4.8a22.117,22.117,0,0,0,5.268-2.134l3.744,2.979a1.6,1.6,0,0,0,2.129-.121l5.007-5.007a1.6,1.6,0,0,0,.121-2.129l-2.859-3.592a22.118,22.118,0,0,0,2.393-5.463l4.425-.5a1.6,1.6,0,0,0,1.421-1.591V23.785a1.6,1.6,0,0,0-1.42-1.591Zm0,0" transform="translate(-228.674 0)" fill="#534ccf"/>
    <path id="Trazado_6486" data-name="Trazado 6486" d="M176.287,181.087a9.526,9.526,0,1,1,9.526-9.525A9.536,9.536,0,0,1,176.287,181.087Zm0,0" transform="translate(-148.961 -144.74)" fill="#29daf8"/>
    <path id="Trazado_6487" data-name="Trazado 6487" d="M256,162.035v19.051a9.526,9.526,0,1,0,0-19.051Zm0,0" transform="translate(-228.674 -144.739)" fill="#00c1f1"/>
  </g>
</svg>
