<svg xmlns="http://www.w3.org/2000/svg" width="126.889" height="225.604" viewBox="0 0 126.889 225.604">
  <path id="a1" d="M120.389,218.647l-.7.7a11.881,11.881,0,0,1-8.174,3.261,11.7,11.7,0,0,1-8.7-3.739L3.392,119.432A11.946,11.946,0,0,1,0,111.041a11.761,11.761,0,0,1,3.392-8.391L103.563,3.522A11.626,11.626,0,0,1,112.041,0a11.869,11.869,0,0,1,8.391,20.3L29.782,111l9.7,9.608,80.954,81.042A12.138,12.138,0,0,1,120.389,218.647Z" transform="translate(125.389 224.104) rotate(180)" fill="#fff" stroke="#fff" stroke-width="3"/>
</svg>
