<svg xmlns="http://www.w3.org/2000/svg" width="45.429" height="54.749" viewBox="0 0 45.429 54.749">
  <g id="game" transform="translate(0)">
    <rect id="Rectángulo_1719" data-name="Rectángulo 1719" width="45.429" height="54.749" rx="2.75" transform="translate(0 0)" fill="#40596b"/>
    <path id="Trazado_6476" data-name="Trazado 6476" d="M32.624,3.25H9.327A4.082,4.082,0,0,0,5.25,7.327V21.305a4.082,4.082,0,0,0,4.077,4.077H25.635a1.754,1.754,0,0,0,1.048-.349L36,18.044a1.747,1.747,0,0,0,.7-1.4V7.327A4.082,4.082,0,0,0,32.624,3.25Z" transform="translate(1.739 3.739)" fill="#f2f2f2"/>
    <path id="Trazado_6477" data-name="Trazado 6477" d="M16.816,20.245H7.5a1.747,1.747,0,0,1,0-3.495h9.319a1.747,1.747,0,0,1,0,3.495Z" transform="translate(2.404 21.69)" fill="#54c0eb"/>
    <path id="Trazado_6478" data-name="Trazado 6478" d="M9.5,27.563A1.747,1.747,0,0,1,7.75,25.816V16.5a1.747,1.747,0,1,1,3.495,0v9.319A1.747,1.747,0,0,1,9.5,27.563Z" transform="translate(5.063 19.031)" fill="#54c0eb"/>
    <g id="Grupo_873" data-name="Grupo 873" transform="translate(25.627 33.781)">
      <ellipse id="Elipse_48" data-name="Elipse 48" cx="2.912" cy="2.912" rx="2.912" ry="2.912" transform="translate(5.824)" fill="#ffd15c"/>
      <ellipse id="Elipse_49" data-name="Elipse 49" cx="2.912" cy="2.912" rx="2.912" ry="2.912" transform="translate(0 8.154)" fill="#ffd15c"/>
    </g>
  </g>
</svg>
