<svg id="Grupo_948" data-name="Grupo 948" xmlns="http://www.w3.org/2000/svg" width="72.255" height="53.092" viewBox="0 0 72.255 53.092">
  <g id="Grupo_4" data-name="Grupo 4" transform="translate(0.005 0)">
    <g id="Grupo_61" data-name="Grupo 61">
      <path id="Trazado_47" data-name="Trazado 47" d="M247.151,139.512H185.286a5.192,5.192,0,1,0,0,10.384h61.865a5.192,5.192,0,1,0,0-10.384Z" transform="translate(-180.094 -139.512)" fill="#fff"/>
    </g>
  </g>
  <g id="Grupo_5" data-name="Grupo 5" transform="translate(0.005 21.354)">
    <g id="Grupo_63" data-name="Grupo 63">
      <path id="Trazado_48" data-name="Trazado 48" d="M247.151,202.183H185.286a5.192,5.192,0,1,0,0,10.384h61.865a5.192,5.192,0,1,0,0-10.384Z" transform="translate(-180.094 -202.183)" fill="#fff"/>
    </g>
  </g>
  <g id="Grupo_6" data-name="Grupo 6" transform="translate(0 42.708)">
    <g id="Grupo_65" data-name="Grupo 65">
      <path id="Trazado_49" data-name="Trazado 49" d="M223.337,264.852H185.285a5.192,5.192,0,1,0,0,10.384h38.052a5.192,5.192,0,1,0,0-10.384Z" transform="translate(-180.093 -264.852)" fill="#fff"/>
    </g>
  </g>
</svg>
