<svg xmlns="http://www.w3.org/2000/svg" width="50.254" height="35.535" viewBox="0 0 50.254 35.535">
  <g id="informacion" transform="translate(0 -74.395)">
    <path id="XMLID_349_" d="M98.345,78.667A17.345,17.345,0,1,0,115.69,96.012,17.364,17.364,0,0,0,98.345,78.667ZM99.8,105.179H96.828v-3.166H99.8Zm0-6.2H96.828V86.845H99.8Z" transform="translate(-72.987 -3.849)" fill="#fff"/>
    <path id="XMLID_381_" d="M9.458,76.493l-2.1-2.1a25.127,25.127,0,0,0,0,35.535l2.1-2.1a22.184,22.184,0,0,1,0-31.338Z" transform="translate(0 0)" fill="#fff"/>
    <path id="XMLID_382_" d="M414.49,74.395l-2.1,2.1a22.184,22.184,0,0,1,0,31.338l2.1,2.1a25.127,25.127,0,0,0,0-35.535Z" transform="translate(-371.596)" fill="#fff"/>
  </g>
</svg>
