<svg xmlns="http://www.w3.org/2000/svg" width="51.283" height="56.181" viewBox="0 0 51.283 56.181">
  <g id="pass" transform="translate(0)">
    <path id="Trazado_6488" data-name="Trazado 6488" d="M238.311,0h0c-8.059,0-14.592,6.284-14.592,14.036V31.108h7.39V14.317a6.939,6.939,0,0,1,7.2-6.643h0a6.939,6.939,0,0,1,7.2,6.643v5.567l7.39,0V14.036C252.9,6.284,246.37,0,238.311,0Z" transform="translate(-201.62 0)" fill="#c8c6cd"/>
    <rect id="Rect치ngulo_1720" data-name="Rect치ngulo 1720" width="35.544" height="29.858" transform="translate(0 26.323)" fill="#ffb74f"/>
    <path id="Trazado_6489" data-name="Trazado 6489" d="M152.915,317.409a4.391,4.391,0,0,1-1.26,3.085l0,5.443h-6.286l-.009-5.443a4.409,4.409,0,1,1,7.558-3.085Z" transform="translate(-130.735 -278.655)" fill="#9a4c00"/>
    <rect id="Rect치ngulo_1721" data-name="Rect치ngulo 1721" width="17.773" height="29.858" transform="translate(17.772 26.323)" fill="#ff9a00"/>
    <path id="Trazado_6490" data-name="Trazado 6490" d="M188.686,317.409a4.391,4.391,0,0,1-1.26,3.085l0,5.443h-3.146V313A4.409,4.409,0,0,1,188.686,317.409Z" transform="translate(-166.506 -278.655)" fill="#703700"/>
  </g>
</svg>
