<svg xmlns="http://www.w3.org/2000/svg" width="116.826" height="122.229" viewBox="0 0 116.826 122.229">
  <g id="Grupo_692" data-name="Grupo 692" transform="translate(0)">
    <g id="Grupo_697" data-name="Grupo 697" transform="translate(0)">
      <g id="Grupo_695" data-name="Grupo 695">
        <path id="Trazado_4939" data-name="Trazado 4939" d="M376.466,200.452A7.755,7.755,0,0,0,371,187.358c-.054,0-.108,0-.162,0V202.87A7.688,7.688,0,0,0,376.466,200.452Z" transform="translate(-285.012 -142.63)" fill="#7f66ff"/>
        <path id="Trazado_4940" data-name="Trazado 4940" d="M272,87.09H241v84.028h17.774v17.41L272,179.166l1.791-56.246Z" transform="translate(-186.167 -66.299)" fill="#a079ff"/>
        <path id="Trazado_4941" data-name="Trazado 4941" d="M370.841,87.09v92.076l11.369-8.049h19.629V87.09Z" transform="translate(-285.012 -66.299)" fill="#7f66ff"/>
        <g id="Grupo_692-2" data-name="Grupo 692">
          <path id="Trazado_4942" data-name="Trazado 4942" d="M133.545,0l-2.388,41.937,2.388,50.14,13.223,9.362V84.028h17.774V0Z" transform="translate(-102.548)" fill="#fdcb02"/>
          <path id="Trazado_4943" data-name="Trazado 4943" d="M11.318,0V84.028H30.947l11.368,8.049V0Z" transform="translate(-11.318)" fill="#f2de34"/>
        </g>
        <g id="Grupo_694" data-name="Grupo 694" transform="translate(16.078 15.36)">
          <g id="Grupo_693" data-name="Grupo 693" transform="translate(12.292)">
            <path id="Trazado_4944" data-name="Trazado 4944" d="M133.546,71.5a3.581,3.581,0,0,0,0-7.162l-2.388,3.581Z" transform="translate(-130.919 -64.342)" fill="#f5f0eb"/>
            <path id="Trazado_4945" data-name="Trazado 4945" d="M132.783,139.778h3.581V124.342h-3.581l-2.626,7.718,2.626,7.718Z" transform="translate(-130.157 -110.018)" fill="#f5f0eb"/>
            <path id="Trazado_4946" data-name="Trazado 4946" d="M141.3,221.495a7.873,7.873,0,0,1-.075,1.086,7.754,7.754,0,0,1-7.682,6.668l-2.388,3.586,2.388,3.578a14.922,14.922,0,0,0,14.775-12.843,15.1,15.1,0,0,0,.144-2.076Z" transform="translate(-130.918 -183.978)" fill="#f5f0eb"/>
          </g>
          <path id="Trazado_4947" data-name="Trazado 4947" d="M126.159,67.923A3.581,3.581,0,0,0,129.74,71.5V64.342A3.581,3.581,0,0,0,126.159,67.923Z" transform="translate(-114.821 -64.342)" fill="#fff7f7"/>
          <path id="Trazado_4948" data-name="Trazado 4948" d="M93.423,155.29A7.754,7.754,0,0,1,87.96,142.2a7.687,7.687,0,0,1,5.624-2.418V124.342H90v8.715a14.986,14.986,0,0,0-7.237,4.208,14.8,14.8,0,0,0-4.08,11.058,14.962,14.962,0,0,0,14.592,14.127c.1,0,.2,0,.3,0h0V155.29C93.531,155.29,93.477,155.291,93.423,155.29Z" transform="translate(-78.666 -110.018)" fill="#fff7f7"/>
        </g>
      </g>
      <g id="Grupo_696" data-name="Grupo 696" transform="translate(70.91 37.569)">
        <path id="Trazado_4949" data-name="Trazado 4949" d="M355.841,350.579a3.581,3.581,0,0,0,3.581,3.581l.557-2.968L359.422,347A3.581,3.581,0,0,0,355.841,350.579Z" transform="translate(-344.503 -301.728)" fill="#fff7f7"/>
        <path id="Trazado_4950" data-name="Trazado 4950" d="M359.421,252.337H355.84v15.436h3.581l.557-7.881-.557-7.556Z" transform="translate(-344.502 -229.666)" fill="#fff7f7"/>
        <path id="Trazado_4951" data-name="Trazado 4951" d="M308.493,170.209a15.084,15.084,0,0,0-.144,2.076h7.162a7.871,7.871,0,0,1,.075-1.086,7.745,7.745,0,0,1,7.682-6.668l.557-3.563-.557-3.6A14.923,14.923,0,0,0,308.493,170.209Z" transform="translate(-308.349 -157.37)" fill="#fff7f7"/>
      </g>
      <path id="Trazado_4952" data-name="Trazado 4952" d="M371,164.524a7.755,7.755,0,0,1,5.463,13.094,7.687,7.687,0,0,1-5.625,2.418v15.436h3.581v-8.715a14.986,14.986,0,0,0,7.238-4.208,14.8,14.8,0,0,0,4.079-11.058,14.962,14.962,0,0,0-14.592-14.127c-.1,0-.2,0-.306,0v7.16C370.895,164.524,370.948,164.523,371,164.524Z" transform="translate(-285.012 -119.796)" fill="#f5f0eb"/>
    </g>
    <path id="Trazado_4953" data-name="Trazado 4953" d="M374.422,350.579A3.581,3.581,0,0,0,370.841,347v7.162A3.581,3.581,0,0,0,374.422,350.579Z" transform="translate(-285.012 -264.16)" fill="#f5f0eb"/>
  </g>
</svg>
